<mxfile host="app.diagrams.net" agent="Mozilla/5.0 (Windows NT 10.0; Win64; x64) AppleWebKit/537.36 (KHTML, like Gecko) Chrome/131.0.0.0 Safari/537.36" version="25.0.3">
  <diagram name="PÃ¡gina-1" id="EjvLclhS1nC_yqNBpNJn">
    <mxGraphModel grid="0" page="1" gridSize="10" guides="1" tooltips="1" connect="1" arrows="1" fold="1" pageScale="1" pageWidth="3300" pageHeight="4681" math="0" shadow="1">
      <root>
        <mxCell id="0" />
        <mxCell id="1" parent="0" />
        <mxCell id="pmfbboUPxJYDlXDQIil8-47" value="" style="rounded=0;whiteSpace=wrap;html=1;" vertex="1" parent="1">
          <mxGeometry x="-2128" y="-1387" width="106" height="45" as="geometry" />
        </mxCell>
        <mxCell id="pmfbboUPxJYDlXDQIil8-23" value="" style="rounded=0;whiteSpace=wrap;html=1;" vertex="1" parent="1">
          <mxGeometry x="-1761" y="-1001" width="107" height="47" as="geometry" />
        </mxCell>
        <mxCell id="pmfbboUPxJYDlXDQIil8-22" value="" style="rounded=0;whiteSpace=wrap;html=1;" vertex="1" parent="1">
          <mxGeometry x="-1644" y="-1000" width="107" height="47" as="geometry" />
        </mxCell>
        <mxCell id="g8suzwGlBMZNTWlI-Ku3-145" style="rounded=0;orthogonalLoop=1;jettySize=auto;html=1;exitX=1;exitY=0.5;exitDx=0;exitDy=0;entryX=0;entryY=0.5;entryDx=0;entryDy=0;endArrow=none;endFill=0;" edge="1" parent="1" source="g8suzwGlBMZNTWlI-Ku3-140" target="g8suzwGlBMZNTWlI-Ku3-143">
          <mxGeometry relative="1" as="geometry" />
        </mxCell>
        <mxCell id="g8suzwGlBMZNTWlI-Ku3-146" style="rounded=0;orthogonalLoop=1;jettySize=auto;html=1;exitX=1;exitY=0.5;exitDx=0;exitDy=0;entryX=0;entryY=0.5;entryDx=0;entryDy=0;endArrow=none;endFill=0;" edge="1" parent="1" source="g8suzwGlBMZNTWlI-Ku3-140" target="g8suzwGlBMZNTWlI-Ku3-141">
          <mxGeometry relative="1" as="geometry" />
        </mxCell>
        <mxCell id="g8suzwGlBMZNTWlI-Ku3-140" value="" style="rounded=0;whiteSpace=wrap;html=1;" vertex="1" parent="1">
          <mxGeometry x="-1256" y="-1781" width="107" height="48" as="geometry" />
        </mxCell>
        <mxCell id="g8suzwGlBMZNTWlI-Ku3-16" style="rounded=0;orthogonalLoop=1;jettySize=auto;html=1;exitX=1;exitY=0.5;exitDx=0;exitDy=0;entryX=0;entryY=0.5;entryDx=0;entryDy=0;edgeStyle=orthogonalEdgeStyle;endArrow=none;endFill=0;" edge="1" parent="1" source="g8suzwGlBMZNTWlI-Ku3-1" target="g8suzwGlBMZNTWlI-Ku3-12">
          <mxGeometry relative="1" as="geometry" />
        </mxCell>
        <mxCell id="g8suzwGlBMZNTWlI-Ku3-1" value="SEDE" style="whiteSpace=wrap;html=1;align=center;" vertex="1" parent="1">
          <mxGeometry x="-2050" y="-1686" width="74" height="40" as="geometry" />
        </mxCell>
        <mxCell id="g8suzwGlBMZNTWlI-Ku3-134" style="edgeStyle=orthogonalEdgeStyle;rounded=0;orthogonalLoop=1;jettySize=auto;html=1;exitX=1;exitY=0.5;exitDx=0;exitDy=0;entryX=0;entryY=0.5;entryDx=0;entryDy=0;endArrow=none;endFill=0;" edge="1" parent="1" source="g8suzwGlBMZNTWlI-Ku3-3" target="g8suzwGlBMZNTWlI-Ku3-132">
          <mxGeometry relative="1" as="geometry" />
        </mxCell>
        <mxCell id="g8suzwGlBMZNTWlI-Ku3-3" value="EMPRESA" style="whiteSpace=wrap;html=1;align=center;" vertex="1" parent="1">
          <mxGeometry x="-1700" y="-1686" width="100" height="40" as="geometry" />
        </mxCell>
        <mxCell id="g8suzwGlBMZNTWlI-Ku3-4" value="ENCARGADO" style="whiteSpace=wrap;html=1;align=center;" vertex="1" parent="1">
          <mxGeometry x="-2125" y="-1384.5" width="100" height="40" as="geometry" />
        </mxCell>
        <mxCell id="g8suzwGlBMZNTWlI-Ku3-23" style="rounded=0;orthogonalLoop=1;jettySize=auto;html=1;exitX=0.5;exitY=1;exitDx=0;exitDy=0;entryX=0.5;entryY=0;entryDx=0;entryDy=0;endArrow=none;endFill=0;" edge="1" parent="1" source="g8suzwGlBMZNTWlI-Ku3-5" target="_W_FJxRL6LF1LhHI--hp-1">
          <mxGeometry relative="1" as="geometry" />
        </mxCell>
        <mxCell id="g8suzwGlBMZNTWlI-Ku3-29" style="rounded=0;orthogonalLoop=1;jettySize=auto;html=1;entryX=0.5;entryY=0;entryDx=0;entryDy=0;edgeStyle=orthogonalEdgeStyle;endArrow=none;endFill=0;" edge="1" parent="1" target="g8suzwGlBMZNTWlI-Ku3-27">
          <mxGeometry relative="1" as="geometry">
            <mxPoint x="-1701" y="-1144" as="sourcePoint" />
          </mxGeometry>
        </mxCell>
        <mxCell id="g8suzwGlBMZNTWlI-Ku3-61" style="edgeStyle=orthogonalEdgeStyle;rounded=0;orthogonalLoop=1;jettySize=auto;html=1;exitX=1;exitY=0.5;exitDx=0;exitDy=0;entryX=0;entryY=0.5;entryDx=0;entryDy=0;endArrow=none;endFill=0;" edge="1" parent="1" source="g8suzwGlBMZNTWlI-Ku3-5" target="g8suzwGlBMZNTWlI-Ku3-60">
          <mxGeometry relative="1" as="geometry" />
        </mxCell>
        <mxCell id="g8suzwGlBMZNTWlI-Ku3-151" style="edgeStyle=orthogonalEdgeStyle;rounded=0;orthogonalLoop=1;jettySize=auto;html=1;exitX=0;exitY=0.75;exitDx=0;exitDy=0;entryX=0.5;entryY=1;entryDx=0;entryDy=0;endArrow=none;endFill=0;" edge="1" parent="1" source="g8suzwGlBMZNTWlI-Ku3-5" target="g8suzwGlBMZNTWlI-Ku3-150">
          <mxGeometry relative="1" as="geometry" />
        </mxCell>
        <mxCell id="g8suzwGlBMZNTWlI-Ku3-5" value="VEHICULO" style="whiteSpace=wrap;html=1;align=center;" vertex="1" parent="1">
          <mxGeometry x="-1700" y="-1179" width="100" height="40" as="geometry" />
        </mxCell>
        <mxCell id="pmfbboUPxJYDlXDQIil8-28" style="rounded=0;orthogonalLoop=1;jettySize=auto;html=1;exitX=1;exitY=0.5;exitDx=0;exitDy=0;entryX=0;entryY=0;entryDx=0;entryDy=0;endArrow=none;endFill=0;" edge="1" parent="1" source="g8suzwGlBMZNTWlI-Ku3-6" target="g8suzwGlBMZNTWlI-Ku3-27">
          <mxGeometry relative="1" as="geometry" />
        </mxCell>
        <mxCell id="pmfbboUPxJYDlXDQIil8-32" style="rounded=0;orthogonalLoop=1;jettySize=auto;html=1;exitX=1;exitY=0.75;exitDx=0;exitDy=0;entryX=0;entryY=0.5;entryDx=0;entryDy=0;endArrow=none;endFill=0;edgeStyle=orthogonalEdgeStyle;" edge="1" parent="1" source="g8suzwGlBMZNTWlI-Ku3-6" target="pmfbboUPxJYDlXDQIil8-31">
          <mxGeometry relative="1" as="geometry">
            <Array as="points">
              <mxPoint x="-1954" y="-1045" />
              <mxPoint x="-1954" y="-973" />
            </Array>
          </mxGeometry>
        </mxCell>
        <mxCell id="g8suzwGlBMZNTWlI-Ku3-6" value="CONDUCTOR" style="whiteSpace=wrap;html=1;align=center;" vertex="1" parent="1">
          <mxGeometry x="-2089.5" y="-1075" width="100" height="40" as="geometry" />
        </mxCell>
        <mxCell id="g8suzwGlBMZNTWlI-Ku3-8" value="FURGONETA" style="whiteSpace=wrap;html=1;align=center;strokeColor=none;" vertex="1" parent="1">
          <mxGeometry x="-1758" y="-997" width="100" height="40" as="geometry" />
        </mxCell>
        <mxCell id="g8suzwGlBMZNTWlI-Ku3-9" value="CAMION" style="whiteSpace=wrap;html=1;align=center;strokeColor=none;" vertex="1" parent="1">
          <mxGeometry x="-1640" y="-997" width="100" height="40" as="geometry" />
        </mxCell>
        <mxCell id="g8suzwGlBMZNTWlI-Ku3-64" style="edgeStyle=orthogonalEdgeStyle;rounded=0;orthogonalLoop=1;jettySize=auto;html=1;exitX=0.5;exitY=1;exitDx=0;exitDy=0;entryX=0.5;entryY=0;entryDx=0;entryDy=0;endArrow=none;endFill=0;" edge="1" parent="1" source="g8suzwGlBMZNTWlI-Ku3-10" target="g8suzwGlBMZNTWlI-Ku3-63">
          <mxGeometry relative="1" as="geometry" />
        </mxCell>
        <mxCell id="g8suzwGlBMZNTWlI-Ku3-70" style="rounded=0;orthogonalLoop=1;jettySize=auto;html=1;exitX=1;exitY=0.5;exitDx=0;exitDy=0;entryX=0;entryY=0.5;entryDx=0;entryDy=0;endArrow=none;endFill=0;" edge="1" parent="1" source="g8suzwGlBMZNTWlI-Ku3-10" target="g8suzwGlBMZNTWlI-Ku3-69">
          <mxGeometry relative="1" as="geometry" />
        </mxCell>
        <mxCell id="g8suzwGlBMZNTWlI-Ku3-10" value="TALLER" style="whiteSpace=wrap;html=1;align=center;" vertex="1" parent="1">
          <mxGeometry x="-1408" y="-1179" width="100" height="40" as="geometry" />
        </mxCell>
        <mxCell id="g8suzwGlBMZNTWlI-Ku3-11" value="INFORME" style="whiteSpace=wrap;html=1;align=center;" vertex="1" parent="1">
          <mxGeometry x="-1408" y="-952" width="100" height="40" as="geometry" />
        </mxCell>
        <mxCell id="g8suzwGlBMZNTWlI-Ku3-127" style="edgeStyle=orthogonalEdgeStyle;rounded=0;orthogonalLoop=1;jettySize=auto;html=1;exitX=1;exitY=0.5;exitDx=0;exitDy=0;entryX=0;entryY=0.5;entryDx=0;entryDy=0;endArrow=none;endFill=0;" edge="1" parent="1" source="g8suzwGlBMZNTWlI-Ku3-12" target="g8suzwGlBMZNTWlI-Ku3-3">
          <mxGeometry relative="1" as="geometry" />
        </mxCell>
        <mxCell id="g8suzwGlBMZNTWlI-Ku3-12" value="Gestiona" style="rhombus;whiteSpace=wrap;html=1;" vertex="1" parent="1">
          <mxGeometry x="-1870" y="-1684.5" width="80" height="37" as="geometry" />
        </mxCell>
        <mxCell id="g8suzwGlBMZNTWlI-Ku3-15" style="rounded=0;orthogonalLoop=1;jettySize=auto;html=1;exitX=0.5;exitY=0;exitDx=0;exitDy=0;entryX=0;entryY=0.5;entryDx=0;entryDy=0;edgeStyle=orthogonalEdgeStyle;endArrow=none;endFill=0;" edge="1" parent="1" source="g8suzwGlBMZNTWlI-Ku3-14" target="g8suzwGlBMZNTWlI-Ku3-1">
          <mxGeometry relative="1" as="geometry" />
        </mxCell>
        <mxCell id="g8suzwGlBMZNTWlI-Ku3-17" style="rounded=0;orthogonalLoop=1;jettySize=auto;html=1;exitX=0.5;exitY=1;exitDx=0;exitDy=0;entryX=0.5;entryY=0;entryDx=0;entryDy=0;edgeStyle=orthogonalEdgeStyle;endArrow=none;endFill=0;" edge="1" parent="1" source="g8suzwGlBMZNTWlI-Ku3-14" target="g8suzwGlBMZNTWlI-Ku3-4">
          <mxGeometry relative="1" as="geometry" />
        </mxCell>
        <mxCell id="g8suzwGlBMZNTWlI-Ku3-14" value="Administra" style="rhombus;whiteSpace=wrap;html=1;" vertex="1" parent="1">
          <mxGeometry x="-2115" y="-1619" width="80" height="37" as="geometry" />
        </mxCell>
        <mxCell id="g8suzwGlBMZNTWlI-Ku3-21" style="rounded=0;orthogonalLoop=1;jettySize=auto;html=1;exitX=0.5;exitY=1;exitDx=0;exitDy=0;entryX=0.5;entryY=0;entryDx=0;entryDy=0;edgeStyle=orthogonalEdgeStyle;endArrow=none;endFill=0;" edge="1" parent="1" source="g8suzwGlBMZNTWlI-Ku3-19" target="XZ_IPOt9MAIvKjfWIf2Y-1">
          <mxGeometry relative="1" as="geometry" />
        </mxCell>
        <mxCell id="g8suzwGlBMZNTWlI-Ku3-126" style="edgeStyle=orthogonalEdgeStyle;rounded=0;orthogonalLoop=1;jettySize=auto;html=1;exitX=0.5;exitY=0;exitDx=0;exitDy=0;entryX=0.5;entryY=1;entryDx=0;entryDy=0;endArrow=none;endFill=0;" edge="1" parent="1" source="g8suzwGlBMZNTWlI-Ku3-19" target="g8suzwGlBMZNTWlI-Ku3-3">
          <mxGeometry relative="1" as="geometry" />
        </mxCell>
        <mxCell id="g8suzwGlBMZNTWlI-Ku3-19" value="Participa" style="rhombus;whiteSpace=wrap;html=1;" vertex="1" parent="1">
          <mxGeometry x="-1689.5" y="-1589" width="80" height="37" as="geometry" />
        </mxCell>
        <mxCell id="g8suzwGlBMZNTWlI-Ku3-24" style="rounded=0;orthogonalLoop=1;jettySize=auto;html=1;exitX=0.5;exitY=0;exitDx=0;exitDy=0;entryX=0.5;entryY=0;entryDx=0;entryDy=0;endArrow=none;endFill=0;" edge="1" parent="1" source="g8suzwGlBMZNTWlI-Ku3-22" target="g8suzwGlBMZNTWlI-Ku3-9">
          <mxGeometry relative="1" as="geometry" />
        </mxCell>
        <mxCell id="g8suzwGlBMZNTWlI-Ku3-25" style="rounded=0;orthogonalLoop=1;jettySize=auto;html=1;exitX=0.5;exitY=1;exitDx=0;exitDy=0;entryX=0.5;entryY=0;entryDx=0;entryDy=0;endArrow=none;endFill=0;" edge="1" parent="1" source="g8suzwGlBMZNTWlI-Ku3-22" target="g8suzwGlBMZNTWlI-Ku3-8">
          <mxGeometry relative="1" as="geometry" />
        </mxCell>
        <mxCell id="g8suzwGlBMZNTWlI-Ku3-22" value="" style="triangle;whiteSpace=wrap;html=1;rotation=90;" vertex="1" parent="1">
          <mxGeometry x="-1668" y="-1077" width="39" height="50" as="geometry" />
        </mxCell>
        <mxCell id="g8suzwGlBMZNTWlI-Ku3-27" value="Conduce" style="rhombus;whiteSpace=wrap;html=1;" vertex="1" parent="1">
          <mxGeometry x="-1932" y="-1068" width="80" height="54" as="geometry" />
        </mxCell>
        <mxCell id="g8suzwGlBMZNTWlI-Ku3-42" style="rounded=0;orthogonalLoop=1;jettySize=auto;html=1;exitX=1;exitY=0.5;exitDx=0;exitDy=0;entryX=0;entryY=0.5;entryDx=0;entryDy=0;endArrow=none;endFill=0;" edge="1" parent="1" source="g8suzwGlBMZNTWlI-Ku3-34" target="g8suzwGlBMZNTWlI-Ku3-6">
          <mxGeometry relative="1" as="geometry" />
        </mxCell>
        <mxCell id="g8suzwGlBMZNTWlI-Ku3-34" value="dni" style="ellipse;whiteSpace=wrap;html=1;aspect=fixed;fillColor=#5C068C;labelPosition=center;verticalLabelPosition=bottom;align=center;verticalAlign=top;" vertex="1" parent="1">
          <mxGeometry x="-2188.5" y="-971" width="50" height="50" as="geometry" />
        </mxCell>
        <mxCell id="g8suzwGlBMZNTWlI-Ku3-39" style="rounded=0;orthogonalLoop=1;jettySize=auto;html=1;exitX=1;exitY=0.5;exitDx=0;exitDy=0;entryX=0;entryY=0.5;entryDx=0;entryDy=0;endArrow=none;endFill=0;" edge="1" parent="1" source="g8suzwGlBMZNTWlI-Ku3-35" target="g8suzwGlBMZNTWlI-Ku3-6">
          <mxGeometry relative="1" as="geometry" />
        </mxCell>
        <mxCell id="g8suzwGlBMZNTWlI-Ku3-35" value="nombre" style="ellipse;whiteSpace=wrap;html=1;aspect=fixed;labelPosition=center;verticalLabelPosition=bottom;align=center;verticalAlign=top;" vertex="1" parent="1">
          <mxGeometry x="-2188.5" y="-1200" width="50" height="50" as="geometry" />
        </mxCell>
        <mxCell id="g8suzwGlBMZNTWlI-Ku3-40" style="rounded=0;orthogonalLoop=1;jettySize=auto;html=1;exitX=1;exitY=0.5;exitDx=0;exitDy=0;endArrow=none;endFill=0;entryX=0;entryY=0.5;entryDx=0;entryDy=0;" edge="1" parent="1" source="g8suzwGlBMZNTWlI-Ku3-36" target="g8suzwGlBMZNTWlI-Ku3-6">
          <mxGeometry relative="1" as="geometry">
            <mxPoint x="-2148.5" y="-1050" as="targetPoint" />
          </mxGeometry>
        </mxCell>
        <mxCell id="g8suzwGlBMZNTWlI-Ku3-36" value="apellidos" style="ellipse;whiteSpace=wrap;html=1;aspect=fixed;labelPosition=center;verticalLabelPosition=bottom;align=center;verticalAlign=top;" vertex="1" parent="1">
          <mxGeometry x="-2188.5" y="-1125" width="50" height="50" as="geometry" />
        </mxCell>
        <mxCell id="g8suzwGlBMZNTWlI-Ku3-43" style="rounded=0;orthogonalLoop=1;jettySize=auto;html=1;exitX=1;exitY=0.5;exitDx=0;exitDy=0;entryX=0;entryY=0.5;entryDx=0;entryDy=0;endArrow=none;endFill=0;" edge="1" parent="1" source="g8suzwGlBMZNTWlI-Ku3-38" target="g8suzwGlBMZNTWlI-Ku3-6">
          <mxGeometry relative="1" as="geometry" />
        </mxCell>
        <mxCell id="g8suzwGlBMZNTWlI-Ku3-38" value="licencia" style="ellipse;whiteSpace=wrap;html=1;aspect=fixed;labelPosition=center;verticalLabelPosition=bottom;align=center;verticalAlign=top;" vertex="1" parent="1">
          <mxGeometry x="-2188.5" y="-1043" width="50" height="50" as="geometry" />
        </mxCell>
        <mxCell id="g8suzwGlBMZNTWlI-Ku3-62" style="edgeStyle=orthogonalEdgeStyle;rounded=0;orthogonalLoop=1;jettySize=auto;html=1;exitX=1;exitY=0.5;exitDx=0;exitDy=0;entryX=0;entryY=0.5;entryDx=0;entryDy=0;endArrow=none;endFill=0;" edge="1" parent="1" source="g8suzwGlBMZNTWlI-Ku3-60" target="g8suzwGlBMZNTWlI-Ku3-10">
          <mxGeometry relative="1" as="geometry" />
        </mxCell>
        <mxCell id="g8suzwGlBMZNTWlI-Ku3-60" value="Asociado" style="rhombus;whiteSpace=wrap;html=1;" vertex="1" parent="1">
          <mxGeometry x="-1544" y="-1183.25" width="80" height="48.5" as="geometry" />
        </mxCell>
        <mxCell id="g8suzwGlBMZNTWlI-Ku3-65" style="edgeStyle=orthogonalEdgeStyle;rounded=0;orthogonalLoop=1;jettySize=auto;html=1;exitX=0.5;exitY=1;exitDx=0;exitDy=0;entryX=0.5;entryY=0;entryDx=0;entryDy=0;endArrow=none;endFill=0;" edge="1" parent="1" source="g8suzwGlBMZNTWlI-Ku3-63" target="g8suzwGlBMZNTWlI-Ku3-11">
          <mxGeometry relative="1" as="geometry" />
        </mxCell>
        <mxCell id="g8suzwGlBMZNTWlI-Ku3-63" value="Genera" style="rhombus;whiteSpace=wrap;html=1;" vertex="1" parent="1">
          <mxGeometry x="-1398" y="-1075" width="80" height="51" as="geometry" />
        </mxCell>
        <mxCell id="g8suzwGlBMZNTWlI-Ku3-71" style="rounded=0;orthogonalLoop=1;jettySize=auto;html=1;exitX=0;exitY=0.5;exitDx=0;exitDy=0;entryX=1;entryY=0.5;entryDx=0;entryDy=0;endArrow=none;endFill=0;" edge="1" parent="1" source="g8suzwGlBMZNTWlI-Ku3-66" target="g8suzwGlBMZNTWlI-Ku3-10">
          <mxGeometry relative="1" as="geometry" />
        </mxCell>
        <mxCell id="g8suzwGlBMZNTWlI-Ku3-66" value="nombre" style="ellipse;whiteSpace=wrap;html=1;aspect=fixed;labelPosition=center;verticalLabelPosition=bottom;align=center;verticalAlign=top;" vertex="1" parent="1">
          <mxGeometry x="-1237" y="-1291" width="50" height="50" as="geometry" />
        </mxCell>
        <mxCell id="g8suzwGlBMZNTWlI-Ku3-73" style="rounded=0;orthogonalLoop=1;jettySize=auto;html=1;exitX=0;exitY=0.5;exitDx=0;exitDy=0;entryX=1;entryY=0.5;entryDx=0;entryDy=0;endArrow=none;endFill=0;" edge="1" parent="1" source="g8suzwGlBMZNTWlI-Ku3-67" target="g8suzwGlBMZNTWlI-Ku3-10">
          <mxGeometry relative="1" as="geometry" />
        </mxCell>
        <mxCell id="g8suzwGlBMZNTWlI-Ku3-67" value="telefono" style="ellipse;whiteSpace=wrap;html=1;aspect=fixed;labelPosition=center;verticalLabelPosition=bottom;align=center;verticalAlign=top;" vertex="1" parent="1">
          <mxGeometry x="-1237" y="-1217" width="50" height="50" as="geometry" />
        </mxCell>
        <mxCell id="g8suzwGlBMZNTWlI-Ku3-74" style="rounded=0;orthogonalLoop=1;jettySize=auto;html=1;exitX=0;exitY=0.5;exitDx=0;exitDy=0;entryX=1;entryY=0.5;entryDx=0;entryDy=0;endArrow=none;endFill=0;" edge="1" parent="1" source="g8suzwGlBMZNTWlI-Ku3-68" target="g8suzwGlBMZNTWlI-Ku3-10">
          <mxGeometry relative="1" as="geometry" />
        </mxCell>
        <mxCell id="g8suzwGlBMZNTWlI-Ku3-68" value="direccion" style="ellipse;whiteSpace=wrap;html=1;aspect=fixed;labelPosition=center;verticalLabelPosition=bottom;align=center;verticalAlign=top;" vertex="1" parent="1">
          <mxGeometry x="-1237" y="-1139" width="50" height="50" as="geometry" />
        </mxCell>
        <mxCell id="g8suzwGlBMZNTWlI-Ku3-69" value="id_taller" style="ellipse;whiteSpace=wrap;html=1;aspect=fixed;fillColor=#5C068C;labelPosition=center;verticalLabelPosition=bottom;align=center;verticalAlign=top;" vertex="1" parent="1">
          <mxGeometry x="-1237" y="-1371" width="50" height="50" as="geometry" />
        </mxCell>
        <mxCell id="g8suzwGlBMZNTWlI-Ku3-72" style="edgeStyle=orthogonalEdgeStyle;rounded=0;orthogonalLoop=1;jettySize=auto;html=1;exitX=0.5;exitY=1;exitDx=0;exitDy=0;" edge="1" parent="1" source="g8suzwGlBMZNTWlI-Ku3-67" target="g8suzwGlBMZNTWlI-Ku3-67">
          <mxGeometry relative="1" as="geometry" />
        </mxCell>
        <mxCell id="g8suzwGlBMZNTWlI-Ku3-81" style="rounded=0;orthogonalLoop=1;jettySize=auto;html=1;exitX=0.5;exitY=0;exitDx=0;exitDy=0;entryX=0.5;entryY=1;entryDx=0;entryDy=0;endArrow=none;endFill=0;" edge="1" parent="1" source="g8suzwGlBMZNTWlI-Ku3-75" target="g8suzwGlBMZNTWlI-Ku3-11">
          <mxGeometry relative="1" as="geometry" />
        </mxCell>
        <mxCell id="g8suzwGlBMZNTWlI-Ku3-75" value="descripciÃ³n" style="ellipse;whiteSpace=wrap;html=1;aspect=fixed;labelPosition=center;verticalLabelPosition=bottom;align=center;verticalAlign=top;" vertex="1" parent="1">
          <mxGeometry x="-1405" y="-873" width="50" height="50" as="geometry" />
        </mxCell>
        <mxCell id="g8suzwGlBMZNTWlI-Ku3-82" style="rounded=0;orthogonalLoop=1;jettySize=auto;html=1;exitX=0.5;exitY=0;exitDx=0;exitDy=0;entryX=0.5;entryY=1;entryDx=0;entryDy=0;endArrow=none;endFill=0;" edge="1" parent="1" source="g8suzwGlBMZNTWlI-Ku3-76" target="g8suzwGlBMZNTWlI-Ku3-11">
          <mxGeometry relative="1" as="geometry" />
        </mxCell>
        <mxCell id="g8suzwGlBMZNTWlI-Ku3-76" value="id_informe" style="ellipse;whiteSpace=wrap;html=1;aspect=fixed;fillColor=#5C068C;labelPosition=center;verticalLabelPosition=bottom;align=center;verticalAlign=top;" vertex="1" parent="1">
          <mxGeometry x="-1331" y="-873" width="50" height="50" as="geometry" />
        </mxCell>
        <mxCell id="g8suzwGlBMZNTWlI-Ku3-83" style="rounded=0;orthogonalLoop=1;jettySize=auto;html=1;exitX=0.5;exitY=0;exitDx=0;exitDy=0;entryX=0.5;entryY=1;entryDx=0;entryDy=0;endArrow=none;endFill=0;" edge="1" parent="1" source="g8suzwGlBMZNTWlI-Ku3-77" target="g8suzwGlBMZNTWlI-Ku3-11">
          <mxGeometry relative="1" as="geometry" />
        </mxCell>
        <mxCell id="g8suzwGlBMZNTWlI-Ku3-77" value="nombre_mecanico" style="ellipse;whiteSpace=wrap;html=1;aspect=fixed;labelPosition=center;verticalLabelPosition=bottom;align=center;verticalAlign=top;" vertex="1" parent="1">
          <mxGeometry x="-1245" y="-873" width="50" height="50" as="geometry" />
        </mxCell>
        <mxCell id="g8suzwGlBMZNTWlI-Ku3-84" style="rounded=0;orthogonalLoop=1;jettySize=auto;html=1;exitX=0;exitY=0.5;exitDx=0;exitDy=0;entryX=1;entryY=0.5;entryDx=0;entryDy=0;endArrow=none;endFill=0;" edge="1" parent="1" source="g8suzwGlBMZNTWlI-Ku3-78" target="g8suzwGlBMZNTWlI-Ku3-77">
          <mxGeometry relative="1" as="geometry" />
        </mxCell>
        <mxCell id="g8suzwGlBMZNTWlI-Ku3-78" value="nombre" style="ellipse;whiteSpace=wrap;html=1;aspect=fixed;labelPosition=center;verticalLabelPosition=bottom;align=center;verticalAlign=top;" vertex="1" parent="1">
          <mxGeometry x="-1162" y="-918" width="50" height="50" as="geometry" />
        </mxCell>
        <mxCell id="g8suzwGlBMZNTWlI-Ku3-86" style="rounded=0;orthogonalLoop=1;jettySize=auto;html=1;exitX=0;exitY=0.5;exitDx=0;exitDy=0;entryX=1;entryY=0.5;entryDx=0;entryDy=0;endArrow=none;endFill=0;" edge="1" parent="1" source="g8suzwGlBMZNTWlI-Ku3-79" target="g8suzwGlBMZNTWlI-Ku3-77">
          <mxGeometry relative="1" as="geometry" />
        </mxCell>
        <mxCell id="g8suzwGlBMZNTWlI-Ku3-79" value="apellidos" style="ellipse;whiteSpace=wrap;html=1;aspect=fixed;labelPosition=center;verticalLabelPosition=bottom;align=center;verticalAlign=top;" vertex="1" parent="1">
          <mxGeometry x="-1160" y="-847" width="50" height="50" as="geometry" />
        </mxCell>
        <mxCell id="g8suzwGlBMZNTWlI-Ku3-96" style="rounded=0;orthogonalLoop=1;jettySize=auto;html=1;exitX=0.5;exitY=1;exitDx=0;exitDy=0;entryX=0.5;entryY=0;entryDx=0;entryDy=0;endArrow=none;endFill=0;" edge="1" parent="1" source="g8suzwGlBMZNTWlI-Ku3-87" target="g8suzwGlBMZNTWlI-Ku3-3">
          <mxGeometry relative="1" as="geometry" />
        </mxCell>
        <mxCell id="g8suzwGlBMZNTWlI-Ku3-87" value="tipo_empresa" style="ellipse;whiteSpace=wrap;html=1;aspect=fixed;labelPosition=center;verticalLabelPosition=top;align=center;verticalAlign=bottom;" vertex="1" parent="1">
          <mxGeometry x="-1682.5" y="-1836" width="50" height="50" as="geometry" />
        </mxCell>
        <mxCell id="g8suzwGlBMZNTWlI-Ku3-97" style="rounded=0;orthogonalLoop=1;jettySize=auto;html=1;exitX=0.5;exitY=1;exitDx=0;exitDy=0;entryX=0.5;entryY=0;entryDx=0;entryDy=0;endArrow=none;endFill=0;" edge="1" parent="1" source="g8suzwGlBMZNTWlI-Ku3-88" target="g8suzwGlBMZNTWlI-Ku3-3">
          <mxGeometry relative="1" as="geometry" />
        </mxCell>
        <mxCell id="g8suzwGlBMZNTWlI-Ku3-88" value="telefono" style="ellipse;whiteSpace=wrap;html=1;aspect=fixed;labelPosition=center;verticalLabelPosition=top;align=center;verticalAlign=bottom;" vertex="1" parent="1">
          <mxGeometry x="-1610.5" y="-1836" width="50" height="50" as="geometry" />
        </mxCell>
        <mxCell id="g8suzwGlBMZNTWlI-Ku3-93" style="rounded=0;orthogonalLoop=1;jettySize=auto;html=1;exitX=0.5;exitY=1;exitDx=0;exitDy=0;entryX=0.5;entryY=0;entryDx=0;entryDy=0;endArrow=none;endFill=0;" edge="1" parent="1" source="g8suzwGlBMZNTWlI-Ku3-89" target="g8suzwGlBMZNTWlI-Ku3-3">
          <mxGeometry relative="1" as="geometry" />
        </mxCell>
        <mxCell id="g8suzwGlBMZNTWlI-Ku3-89" value="nombre" style="ellipse;whiteSpace=wrap;html=1;aspect=fixed;labelPosition=center;verticalLabelPosition=top;align=center;verticalAlign=bottom;" vertex="1" parent="1">
          <mxGeometry x="-1819" y="-1836" width="50" height="50" as="geometry" />
        </mxCell>
        <mxCell id="g8suzwGlBMZNTWlI-Ku3-98" style="rounded=0;orthogonalLoop=1;jettySize=auto;html=1;exitX=0.5;exitY=1;exitDx=0;exitDy=0;entryX=0.5;entryY=0;entryDx=0;entryDy=0;endArrow=none;endFill=0;" edge="1" parent="1" source="g8suzwGlBMZNTWlI-Ku3-90" target="g8suzwGlBMZNTWlI-Ku3-3">
          <mxGeometry relative="1" as="geometry" />
        </mxCell>
        <mxCell id="g8suzwGlBMZNTWlI-Ku3-90" value="correo_contacto" style="ellipse;whiteSpace=wrap;html=1;aspect=fixed;labelPosition=center;verticalLabelPosition=top;align=center;verticalAlign=bottom;" vertex="1" parent="1">
          <mxGeometry x="-1530.5" y="-1836" width="50" height="50" as="geometry" />
        </mxCell>
        <mxCell id="g8suzwGlBMZNTWlI-Ku3-95" style="rounded=0;orthogonalLoop=1;jettySize=auto;html=1;exitX=0.5;exitY=1;exitDx=0;exitDy=0;entryX=0.5;entryY=0;entryDx=0;entryDy=0;endArrow=none;endFill=0;" edge="1" parent="1" source="g8suzwGlBMZNTWlI-Ku3-91" target="g8suzwGlBMZNTWlI-Ku3-3">
          <mxGeometry relative="1" as="geometry" />
        </mxCell>
        <mxCell id="g8suzwGlBMZNTWlI-Ku3-91" value="id_empresa" style="ellipse;whiteSpace=wrap;html=1;aspect=fixed;fillColor=#5C068C;labelPosition=center;verticalLabelPosition=top;align=center;verticalAlign=bottom;" vertex="1" parent="1">
          <mxGeometry x="-1755.5" y="-1836" width="50" height="50" as="geometry" />
        </mxCell>
        <mxCell id="g8suzwGlBMZNTWlI-Ku3-107" style="rounded=0;orthogonalLoop=1;jettySize=auto;html=1;exitX=1;exitY=0.5;exitDx=0;exitDy=0;entryX=0.25;entryY=0;entryDx=0;entryDy=0;endArrow=none;endFill=0;" edge="1" parent="1" source="g8suzwGlBMZNTWlI-Ku3-101" target="g8suzwGlBMZNTWlI-Ku3-5">
          <mxGeometry relative="1" as="geometry" />
        </mxCell>
        <mxCell id="g8suzwGlBMZNTWlI-Ku3-101" value="color" style="ellipse;whiteSpace=wrap;html=1;aspect=fixed;labelPosition=center;verticalLabelPosition=bottom;align=center;verticalAlign=top;" vertex="1" parent="1">
          <mxGeometry x="-1798.5" y="-1220" width="50" height="50" as="geometry" />
        </mxCell>
        <mxCell id="g8suzwGlBMZNTWlI-Ku3-108" style="rounded=0;orthogonalLoop=1;jettySize=auto;html=1;exitX=1;exitY=0.5;exitDx=0;exitDy=0;entryX=0.25;entryY=0;entryDx=0;entryDy=0;endArrow=none;endFill=0;" edge="1" parent="1" source="g8suzwGlBMZNTWlI-Ku3-102" target="g8suzwGlBMZNTWlI-Ku3-5">
          <mxGeometry relative="1" as="geometry" />
        </mxCell>
        <mxCell id="g8suzwGlBMZNTWlI-Ku3-102" value="modelo" style="ellipse;whiteSpace=wrap;html=1;aspect=fixed;labelPosition=center;verticalLabelPosition=top;align=center;verticalAlign=bottom;" vertex="1" parent="1">
          <mxGeometry x="-1809" y="-1281" width="50" height="50" as="geometry" />
        </mxCell>
        <mxCell id="g8suzwGlBMZNTWlI-Ku3-105" style="rounded=0;orthogonalLoop=1;jettySize=auto;html=1;exitX=0.5;exitY=1;exitDx=0;exitDy=0;entryX=0.25;entryY=0;entryDx=0;entryDy=0;endArrow=none;endFill=0;" edge="1" parent="1" source="g8suzwGlBMZNTWlI-Ku3-103" target="g8suzwGlBMZNTWlI-Ku3-5">
          <mxGeometry relative="1" as="geometry" />
        </mxCell>
        <mxCell id="g8suzwGlBMZNTWlI-Ku3-103" value="estado" style="ellipse;whiteSpace=wrap;html=1;aspect=fixed;labelPosition=center;verticalLabelPosition=top;align=center;verticalAlign=bottom;" vertex="1" parent="1">
          <mxGeometry x="-1705" y="-1288" width="50" height="50" as="geometry" />
        </mxCell>
        <mxCell id="g8suzwGlBMZNTWlI-Ku3-109" style="rounded=0;orthogonalLoop=1;jettySize=auto;html=1;exitX=1;exitY=1;exitDx=0;exitDy=0;entryX=0.25;entryY=0;entryDx=0;entryDy=0;endArrow=none;endFill=0;" edge="1" parent="1" source="g8suzwGlBMZNTWlI-Ku3-104" target="g8suzwGlBMZNTWlI-Ku3-5">
          <mxGeometry relative="1" as="geometry" />
        </mxCell>
        <mxCell id="g8suzwGlBMZNTWlI-Ku3-104" value="matrÃ­cula" style="ellipse;whiteSpace=wrap;html=1;aspect=fixed;fillColor=#5C068C;labelPosition=center;verticalLabelPosition=top;align=center;verticalAlign=bottom;" vertex="1" parent="1">
          <mxGeometry x="-1766" y="-1338" width="50" height="50" as="geometry" />
        </mxCell>
        <mxCell id="g8suzwGlBMZNTWlI-Ku3-112" value="" style="curved=1;endArrow=none;html=1;rounded=0;endFill=0;" edge="1" parent="1">
          <mxGeometry width="50" height="50" relative="1" as="geometry">
            <mxPoint x="-1689" y="-1044" as="sourcePoint" />
            <mxPoint x="-1604" y="-1046" as="targetPoint" />
            <Array as="points">
              <mxPoint x="-1647" y="-979" />
            </Array>
          </mxGeometry>
        </mxCell>
        <mxCell id="g8suzwGlBMZNTWlI-Ku3-113" value="tipo" style="ellipse;whiteSpace=wrap;html=1;aspect=fixed;labelPosition=center;verticalLabelPosition=bottom;align=center;verticalAlign=top;" vertex="1" parent="1">
          <mxGeometry x="-1796" y="-1100" width="50" height="50" as="geometry" />
        </mxCell>
        <mxCell id="g8suzwGlBMZNTWlI-Ku3-114" style="rounded=0;orthogonalLoop=1;jettySize=auto;html=1;endArrow=none;endFill=0;" edge="1" parent="1" source="g8suzwGlBMZNTWlI-Ku3-113" target="g8suzwGlBMZNTWlI-Ku3-22">
          <mxGeometry relative="1" as="geometry" />
        </mxCell>
        <mxCell id="g8suzwGlBMZNTWlI-Ku3-117" style="rounded=0;orthogonalLoop=1;jettySize=auto;html=1;exitX=0.5;exitY=0;exitDx=0;exitDy=0;entryX=0.5;entryY=1;entryDx=0;entryDy=0;endArrow=none;endFill=0;" edge="1" parent="1" source="g8suzwGlBMZNTWlI-Ku3-115" target="g8suzwGlBMZNTWlI-Ku3-8">
          <mxGeometry relative="1" as="geometry" />
        </mxCell>
        <mxCell id="g8suzwGlBMZNTWlI-Ku3-115" value="porton_lateral" style="ellipse;whiteSpace=wrap;html=1;aspect=fixed;labelPosition=center;verticalLabelPosition=bottom;align=center;verticalAlign=top;" vertex="1" parent="1">
          <mxGeometry x="-1733" y="-939" width="50" height="50" as="geometry" />
        </mxCell>
        <mxCell id="pmfbboUPxJYDlXDQIil8-19" style="rounded=0;orthogonalLoop=1;jettySize=auto;html=1;exitX=0.5;exitY=0;exitDx=0;exitDy=0;entryX=0.5;entryY=1;entryDx=0;entryDy=0;endArrow=none;endFill=0;" edge="1" parent="1" source="g8suzwGlBMZNTWlI-Ku3-116" target="g8suzwGlBMZNTWlI-Ku3-9">
          <mxGeometry relative="1" as="geometry" />
        </mxCell>
        <mxCell id="g8suzwGlBMZNTWlI-Ku3-116" value="tiene_trailer" style="ellipse;whiteSpace=wrap;html=1;aspect=fixed;labelPosition=center;verticalLabelPosition=bottom;align=center;verticalAlign=top;" vertex="1" parent="1">
          <mxGeometry x="-1615" y="-939" width="50" height="50" as="geometry" />
        </mxCell>
        <mxCell id="g8suzwGlBMZNTWlI-Ku3-123" style="rounded=0;orthogonalLoop=1;jettySize=auto;html=1;exitX=0.5;exitY=0;exitDx=0;exitDy=0;entryX=0.5;entryY=1;entryDx=0;entryDy=0;endArrow=none;endFill=0;" edge="1" parent="1" source="g8suzwGlBMZNTWlI-Ku3-119" target="pmfbboUPxJYDlXDQIil8-47">
          <mxGeometry relative="1" as="geometry" />
        </mxCell>
        <mxCell id="g8suzwGlBMZNTWlI-Ku3-119" value="nombre" style="ellipse;whiteSpace=wrap;html=1;aspect=fixed;labelPosition=center;verticalLabelPosition=bottom;align=center;verticalAlign=top;" vertex="1" parent="1">
          <mxGeometry x="-2130" y="-1318" width="50" height="50" as="geometry" />
        </mxCell>
        <mxCell id="g8suzwGlBMZNTWlI-Ku3-124" style="rounded=0;orthogonalLoop=1;jettySize=auto;html=1;exitX=0.5;exitY=0;exitDx=0;exitDy=0;endArrow=none;endFill=0;" edge="1" parent="1" source="g8suzwGlBMZNTWlI-Ku3-120">
          <mxGeometry relative="1" as="geometry">
            <mxPoint x="-2072" y="-1342" as="targetPoint" />
          </mxGeometry>
        </mxCell>
        <mxCell id="g8suzwGlBMZNTWlI-Ku3-120" value="apellidos" style="ellipse;whiteSpace=wrap;html=1;aspect=fixed;labelPosition=center;verticalLabelPosition=bottom;align=center;verticalAlign=top;" vertex="1" parent="1">
          <mxGeometry x="-2068.5" y="-1318" width="50" height="50" as="geometry" />
        </mxCell>
        <mxCell id="g8suzwGlBMZNTWlI-Ku3-122" style="rounded=0;orthogonalLoop=1;jettySize=auto;html=1;exitX=0.5;exitY=0;exitDx=0;exitDy=0;entryX=0.5;entryY=1;entryDx=0;entryDy=0;endArrow=none;endFill=0;" edge="1" parent="1" source="g8suzwGlBMZNTWlI-Ku3-121" target="pmfbboUPxJYDlXDQIil8-47">
          <mxGeometry relative="1" as="geometry" />
        </mxCell>
        <mxCell id="g8suzwGlBMZNTWlI-Ku3-121" value="dni" style="ellipse;whiteSpace=wrap;html=1;aspect=fixed;fillColor=#5C068C;labelPosition=center;verticalLabelPosition=bottom;align=center;verticalAlign=top;" vertex="1" parent="1">
          <mxGeometry x="-2192" y="-1318" width="50" height="50" as="geometry" />
        </mxCell>
        <mxCell id="g8suzwGlBMZNTWlI-Ku3-130" style="rounded=0;orthogonalLoop=1;jettySize=auto;html=1;exitX=0;exitY=0.5;exitDx=0;exitDy=0;endArrow=none;endFill=0;" edge="1" parent="1" source="g8suzwGlBMZNTWlI-Ku3-128" target="XZ_IPOt9MAIvKjfWIf2Y-1">
          <mxGeometry relative="1" as="geometry" />
        </mxCell>
        <mxCell id="g8suzwGlBMZNTWlI-Ku3-128" value="fecha_ini" style="ellipse;whiteSpace=wrap;html=1;aspect=fixed;labelPosition=center;verticalLabelPosition=top;align=center;verticalAlign=bottom;" vertex="1" parent="1">
          <mxGeometry x="-1535" y="-1540" width="50" height="50" as="geometry" />
        </mxCell>
        <mxCell id="g8suzwGlBMZNTWlI-Ku3-131" style="rounded=0;orthogonalLoop=1;jettySize=auto;html=1;exitX=0;exitY=0.5;exitDx=0;exitDy=0;endArrow=none;endFill=0;" edge="1" parent="1" source="g8suzwGlBMZNTWlI-Ku3-129" target="XZ_IPOt9MAIvKjfWIf2Y-1">
          <mxGeometry relative="1" as="geometry" />
        </mxCell>
        <mxCell id="g8suzwGlBMZNTWlI-Ku3-129" value="fecha_fin" style="ellipse;whiteSpace=wrap;html=1;aspect=fixed;labelPosition=center;verticalLabelPosition=top;align=center;verticalAlign=bottom;" vertex="1" parent="1">
          <mxGeometry x="-1537" y="-1473" width="50" height="50" as="geometry" />
        </mxCell>
        <mxCell id="g8suzwGlBMZNTWlI-Ku3-133" style="edgeStyle=orthogonalEdgeStyle;rounded=0;orthogonalLoop=1;jettySize=auto;html=1;exitX=0.5;exitY=1;exitDx=0;exitDy=0;entryX=0.75;entryY=0;entryDx=0;entryDy=0;endArrow=none;endFill=0;" edge="1" parent="1" source="g8suzwGlBMZNTWlI-Ku3-132" target="g8suzwGlBMZNTWlI-Ku3-5">
          <mxGeometry relative="1" as="geometry">
            <Array as="points">
              <mxPoint x="-1371" y="-1262" />
              <mxPoint x="-1625" y="-1262" />
            </Array>
          </mxGeometry>
        </mxCell>
        <mxCell id="g8suzwGlBMZNTWlI-Ku3-138" style="rounded=0;orthogonalLoop=1;jettySize=auto;html=1;exitX=1;exitY=1;exitDx=0;exitDy=0;entryX=0;entryY=0;entryDx=0;entryDy=0;endArrow=none;endFill=0;" edge="1" parent="1" source="g8suzwGlBMZNTWlI-Ku3-132" target="g8suzwGlBMZNTWlI-Ku3-136">
          <mxGeometry relative="1" as="geometry" />
        </mxCell>
        <mxCell id="g8suzwGlBMZNTWlI-Ku3-148" style="edgeStyle=orthogonalEdgeStyle;rounded=0;orthogonalLoop=1;jettySize=auto;html=1;exitX=0.5;exitY=0;exitDx=0;exitDy=0;entryX=0;entryY=0.5;entryDx=0;entryDy=0;endArrow=none;endFill=0;" edge="1" parent="1" source="g8suzwGlBMZNTWlI-Ku3-132" target="g8suzwGlBMZNTWlI-Ku3-140">
          <mxGeometry relative="1" as="geometry" />
        </mxCell>
        <mxCell id="g8suzwGlBMZNTWlI-Ku3-132" value="Envia" style="rhombus;whiteSpace=wrap;html=1;" vertex="1" parent="1">
          <mxGeometry x="-1411" y="-1684.5" width="80" height="37" as="geometry" />
        </mxCell>
        <mxCell id="g8suzwGlBMZNTWlI-Ku3-137" style="rounded=0;orthogonalLoop=1;jettySize=auto;html=1;exitX=0;exitY=0;exitDx=0;exitDy=0;entryX=1;entryY=1;entryDx=0;entryDy=0;endArrow=none;endFill=0;" edge="1" parent="1" source="g8suzwGlBMZNTWlI-Ku3-135" target="g8suzwGlBMZNTWlI-Ku3-132">
          <mxGeometry relative="1" as="geometry" />
        </mxCell>
        <mxCell id="g8suzwGlBMZNTWlI-Ku3-135" value="fecha" style="ellipse;whiteSpace=wrap;html=1;aspect=fixed;labelPosition=center;verticalLabelPosition=bottom;align=center;verticalAlign=top;" vertex="1" parent="1">
          <mxGeometry x="-1351" y="-1634" width="50" height="50" as="geometry" />
        </mxCell>
        <mxCell id="g8suzwGlBMZNTWlI-Ku3-136" value="destino" style="ellipse;whiteSpace=wrap;html=1;aspect=fixed;labelPosition=center;verticalLabelPosition=bottom;align=center;verticalAlign=top;" vertex="1" parent="1">
          <mxGeometry x="-1297" y="-1656" width="50" height="50" as="geometry" />
        </mxCell>
        <mxCell id="g8suzwGlBMZNTWlI-Ku3-139" value="PAQUETE" style="whiteSpace=wrap;html=1;align=center;" vertex="1" parent="1">
          <mxGeometry x="-1253" y="-1777" width="100" height="40" as="geometry" />
        </mxCell>
        <mxCell id="g8suzwGlBMZNTWlI-Ku3-141" value="id_paquete" style="ellipse;whiteSpace=wrap;html=1;aspect=fixed;fillColor=#5C068C;labelPosition=center;verticalLabelPosition=bottom;align=center;verticalAlign=top;" vertex="1" parent="1">
          <mxGeometry x="-1110" y="-1781" width="50" height="50" as="geometry" />
        </mxCell>
        <mxCell id="g8suzwGlBMZNTWlI-Ku3-147" style="rounded=0;orthogonalLoop=1;jettySize=auto;html=1;exitX=0;exitY=0.5;exitDx=0;exitDy=0;entryX=1;entryY=0.5;entryDx=0;entryDy=0;endArrow=none;endFill=0;" edge="1" parent="1" source="g8suzwGlBMZNTWlI-Ku3-142" target="g8suzwGlBMZNTWlI-Ku3-140">
          <mxGeometry relative="1" as="geometry" />
        </mxCell>
        <mxCell id="g8suzwGlBMZNTWlI-Ku3-142" value="peso" style="ellipse;whiteSpace=wrap;html=1;aspect=fixed;labelPosition=center;verticalLabelPosition=bottom;align=center;verticalAlign=top;" vertex="1" parent="1">
          <mxGeometry x="-1110" y="-1700" width="50" height="50" as="geometry" />
        </mxCell>
        <mxCell id="g8suzwGlBMZNTWlI-Ku3-143" value="descripcion" style="ellipse;whiteSpace=wrap;html=1;aspect=fixed;labelPosition=center;verticalLabelPosition=bottom;align=center;verticalAlign=top;" vertex="1" parent="1">
          <mxGeometry x="-1112" y="-1857" width="50" height="50" as="geometry" />
        </mxCell>
        <mxCell id="g8suzwGlBMZNTWlI-Ku3-152" style="edgeStyle=orthogonalEdgeStyle;rounded=0;orthogonalLoop=1;jettySize=auto;html=1;exitX=0.5;exitY=0;exitDx=0;exitDy=0;entryX=0.5;entryY=1;entryDx=0;entryDy=0;endArrow=none;endFill=0;" edge="1" parent="1" source="g8suzwGlBMZNTWlI-Ku3-150" target="g8suzwGlBMZNTWlI-Ku3-1">
          <mxGeometry relative="1" as="geometry" />
        </mxCell>
        <mxCell id="g8suzwGlBMZNTWlI-Ku3-150" value="Tiene" style="rhombus;whiteSpace=wrap;html=1;" vertex="1" parent="1">
          <mxGeometry x="-1925.5" y="-1319" width="80" height="37" as="geometry" />
        </mxCell>
        <mxCell id="g8suzwGlBMZNTWlI-Ku3-153" value="&lt;font style=&quot;font-size: 9px;&quot;&gt;(1,1)&lt;/font&gt;" style="text;html=1;align=center;verticalAlign=middle;whiteSpace=wrap;rounded=0;" vertex="1" parent="1">
          <mxGeometry x="-2090.5" y="-1409" width="60" height="30" as="geometry" />
        </mxCell>
        <mxCell id="g8suzwGlBMZNTWlI-Ku3-154" value="&lt;font style=&quot;font-size: 9px;&quot;&gt;(1,1)&lt;/font&gt;" style="text;html=1;align=center;verticalAlign=middle;whiteSpace=wrap;rounded=0;" vertex="1" parent="1">
          <mxGeometry x="-2095" y="-1692" width="60" height="30" as="geometry" />
        </mxCell>
        <mxCell id="g8suzwGlBMZNTWlI-Ku3-163" style="rounded=0;orthogonalLoop=1;jettySize=auto;html=1;exitX=0.5;exitY=1;exitDx=0;exitDy=0;entryX=0.5;entryY=0;entryDx=0;entryDy=0;endArrow=none;endFill=0;" edge="1" parent="1" source="g8suzwGlBMZNTWlI-Ku3-155" target="g8suzwGlBMZNTWlI-Ku3-1">
          <mxGeometry relative="1" as="geometry" />
        </mxCell>
        <mxCell id="g8suzwGlBMZNTWlI-Ku3-155" value="direccion" style="ellipse;whiteSpace=wrap;html=1;aspect=fixed;labelPosition=center;verticalLabelPosition=top;align=center;verticalAlign=bottom;" vertex="1" parent="1">
          <mxGeometry x="-2067.5" y="-1795" width="50" height="50" as="geometry" />
        </mxCell>
        <mxCell id="g8suzwGlBMZNTWlI-Ku3-164" style="rounded=0;orthogonalLoop=1;jettySize=auto;html=1;exitX=0.5;exitY=1;exitDx=0;exitDy=0;entryX=0.5;entryY=0;entryDx=0;entryDy=0;endArrow=none;endFill=0;" edge="1" parent="1" source="g8suzwGlBMZNTWlI-Ku3-156" target="g8suzwGlBMZNTWlI-Ku3-1">
          <mxGeometry relative="1" as="geometry" />
        </mxCell>
        <mxCell id="g8suzwGlBMZNTWlI-Ku3-156" value="telefono" style="ellipse;whiteSpace=wrap;html=1;aspect=fixed;labelPosition=center;verticalLabelPosition=top;align=center;verticalAlign=bottom;" vertex="1" parent="1">
          <mxGeometry x="-1995.5" y="-1795" width="50" height="50" as="geometry" />
        </mxCell>
        <mxCell id="g8suzwGlBMZNTWlI-Ku3-160" style="rounded=0;orthogonalLoop=1;jettySize=auto;html=1;exitX=0.5;exitY=1;exitDx=0;exitDy=0;entryX=0.5;entryY=0;entryDx=0;entryDy=0;endArrow=none;endFill=0;" edge="1" parent="1" source="g8suzwGlBMZNTWlI-Ku3-157" target="g8suzwGlBMZNTWlI-Ku3-1">
          <mxGeometry relative="1" as="geometry" />
        </mxCell>
        <mxCell id="g8suzwGlBMZNTWlI-Ku3-157" value="nombre" style="ellipse;whiteSpace=wrap;html=1;aspect=fixed;labelPosition=center;verticalLabelPosition=top;align=center;verticalAlign=bottom;" vertex="1" parent="1">
          <mxGeometry x="-2204" y="-1795" width="50" height="50" as="geometry" />
        </mxCell>
        <mxCell id="g8suzwGlBMZNTWlI-Ku3-165" style="rounded=0;orthogonalLoop=1;jettySize=auto;html=1;exitX=0.5;exitY=1;exitDx=0;exitDy=0;entryX=0.5;entryY=0;entryDx=0;entryDy=0;endArrow=none;endFill=0;" edge="1" parent="1" source="g8suzwGlBMZNTWlI-Ku3-158" target="g8suzwGlBMZNTWlI-Ku3-1">
          <mxGeometry relative="1" as="geometry" />
        </mxCell>
        <mxCell id="g8suzwGlBMZNTWlI-Ku3-158" value="correo_contacto" style="ellipse;whiteSpace=wrap;html=1;aspect=fixed;labelPosition=center;verticalLabelPosition=top;align=center;verticalAlign=bottom;" vertex="1" parent="1">
          <mxGeometry x="-1915.5" y="-1795" width="50" height="50" as="geometry" />
        </mxCell>
        <mxCell id="g8suzwGlBMZNTWlI-Ku3-161" style="rounded=0;orthogonalLoop=1;jettySize=auto;html=1;exitX=0.5;exitY=1;exitDx=0;exitDy=0;entryX=0.5;entryY=0;entryDx=0;entryDy=0;endArrow=none;endFill=0;" edge="1" parent="1" source="g8suzwGlBMZNTWlI-Ku3-159" target="g8suzwGlBMZNTWlI-Ku3-1">
          <mxGeometry relative="1" as="geometry" />
        </mxCell>
        <mxCell id="g8suzwGlBMZNTWlI-Ku3-159" value="id_sede" style="ellipse;whiteSpace=wrap;html=1;aspect=fixed;fillColor=#5C068C;labelPosition=center;verticalLabelPosition=top;align=center;verticalAlign=bottom;" vertex="1" parent="1">
          <mxGeometry x="-2140.5" y="-1795" width="50" height="50" as="geometry" />
        </mxCell>
        <mxCell id="g8suzwGlBMZNTWlI-Ku3-169" style="rounded=0;orthogonalLoop=1;jettySize=auto;html=1;exitX=0.5;exitY=1;exitDx=0;exitDy=0;entryX=0;entryY=0.5;entryDx=0;entryDy=0;endArrow=none;endFill=0;" edge="1" parent="1" source="g8suzwGlBMZNTWlI-Ku3-166" target="g8suzwGlBMZNTWlI-Ku3-155">
          <mxGeometry relative="1" as="geometry" />
        </mxCell>
        <mxCell id="g8suzwGlBMZNTWlI-Ku3-166" value="localidad" style="ellipse;whiteSpace=wrap;html=1;aspect=fixed;labelPosition=center;verticalLabelPosition=top;align=center;verticalAlign=bottom;" vertex="1" parent="1">
          <mxGeometry x="-2114" y="-1895" width="50" height="50" as="geometry" />
        </mxCell>
        <mxCell id="g8suzwGlBMZNTWlI-Ku3-170" style="rounded=0;orthogonalLoop=1;jettySize=auto;html=1;exitX=0.5;exitY=1;exitDx=0;exitDy=0;entryX=0.5;entryY=0;entryDx=0;entryDy=0;endArrow=none;endFill=0;" edge="1" parent="1" source="g8suzwGlBMZNTWlI-Ku3-167" target="g8suzwGlBMZNTWlI-Ku3-155">
          <mxGeometry relative="1" as="geometry" />
        </mxCell>
        <mxCell id="g8suzwGlBMZNTWlI-Ku3-167" value="calle" style="ellipse;whiteSpace=wrap;html=1;aspect=fixed;labelPosition=center;verticalLabelPosition=top;align=center;verticalAlign=bottom;" vertex="1" parent="1">
          <mxGeometry x="-2052" y="-1895" width="50" height="50" as="geometry" />
        </mxCell>
        <mxCell id="g8suzwGlBMZNTWlI-Ku3-171" style="rounded=0;orthogonalLoop=1;jettySize=auto;html=1;exitX=0.5;exitY=1;exitDx=0;exitDy=0;entryX=1;entryY=0.5;entryDx=0;entryDy=0;endArrow=none;endFill=0;" edge="1" parent="1" source="g8suzwGlBMZNTWlI-Ku3-168" target="g8suzwGlBMZNTWlI-Ku3-155">
          <mxGeometry relative="1" as="geometry" />
        </mxCell>
        <mxCell id="g8suzwGlBMZNTWlI-Ku3-168" value="numero" style="ellipse;whiteSpace=wrap;html=1;aspect=fixed;labelPosition=center;verticalLabelPosition=top;align=center;verticalAlign=bottom;" vertex="1" parent="1">
          <mxGeometry x="-1995.5" y="-1895" width="50" height="50" as="geometry" />
        </mxCell>
        <mxCell id="pmfbboUPxJYDlXDQIil8-2" style="rounded=0;orthogonalLoop=1;jettySize=auto;html=1;exitX=0.5;exitY=0;exitDx=0;exitDy=0;endArrow=none;endFill=0;" edge="1" parent="1" source="pmfbboUPxJYDlXDQIil8-1">
          <mxGeometry relative="1" as="geometry">
            <mxPoint x="-2071" y="-1342" as="targetPoint" />
          </mxGeometry>
        </mxCell>
        <mxCell id="pmfbboUPxJYDlXDQIil8-1" value="id_sede" style="ellipse;whiteSpace=wrap;html=1;aspect=fixed;labelPosition=center;verticalLabelPosition=bottom;align=center;verticalAlign=top;" vertex="1" parent="1">
          <mxGeometry x="-2008" y="-1318" width="50" height="50" as="geometry" />
        </mxCell>
        <mxCell id="pmfbboUPxJYDlXDQIil8-5" value="&lt;font style=&quot;font-size: 9px;&quot;&gt;(1,1)&lt;/font&gt;" style="text;html=1;align=center;verticalAlign=middle;whiteSpace=wrap;rounded=0;" vertex="1" parent="1">
          <mxGeometry x="-1995.5" y="-1689" width="60" height="30" as="geometry" />
        </mxCell>
        <mxCell id="pmfbboUPxJYDlXDQIil8-6" value="&lt;font style=&quot;font-size: 9px;&quot;&gt;(1,N)&lt;/font&gt;" style="text;html=1;align=center;verticalAlign=middle;whiteSpace=wrap;rounded=0;" vertex="1" parent="1">
          <mxGeometry x="-1742.5" y="-1689" width="60" height="30" as="geometry" />
        </mxCell>
        <mxCell id="pmfbboUPxJYDlXDQIil8-8" value="&lt;font style=&quot;font-size: 9px;&quot;&gt;(1,N)&lt;/font&gt;" style="text;html=1;align=center;verticalAlign=middle;whiteSpace=wrap;rounded=0;" vertex="1" parent="1">
          <mxGeometry x="-1301" y="-1781" width="60" height="30" as="geometry" />
        </mxCell>
        <mxCell id="pmfbboUPxJYDlXDQIil8-9" value="&lt;font style=&quot;font-size: 9px;&quot;&gt;(1,1)&lt;/font&gt;" style="text;html=1;align=center;verticalAlign=middle;whiteSpace=wrap;rounded=0;" vertex="1" parent="1">
          <mxGeometry x="-1617" y="-1689" width="60" height="30" as="geometry" />
        </mxCell>
        <mxCell id="pmfbboUPxJYDlXDQIil8-13" value="&lt;font style=&quot;font-size: 9px;&quot;&gt;(1,1)&lt;/font&gt;" style="text;html=1;align=center;verticalAlign=middle;whiteSpace=wrap;rounded=0;" vertex="1" parent="1">
          <mxGeometry x="-1692.5" y="-1654" width="60" height="30" as="geometry" />
        </mxCell>
        <mxCell id="pmfbboUPxJYDlXDQIil8-14" value="&lt;font style=&quot;font-size: 9px;&quot;&gt;(1,1)&lt;/font&gt;" style="text;html=1;align=center;verticalAlign=middle;whiteSpace=wrap;rounded=0;" vertex="1" parent="1">
          <mxGeometry x="-1643" y="-1204" width="60" height="30" as="geometry" />
        </mxCell>
        <mxCell id="pmfbboUPxJYDlXDQIil8-15" value="&lt;font style=&quot;font-size: 9px;&quot;&gt;(0,1)&lt;/font&gt;" style="text;html=1;align=center;verticalAlign=middle;whiteSpace=wrap;rounded=0;" vertex="1" parent="1">
          <mxGeometry x="-1451" y="-1183.25" width="60" height="30" as="geometry" />
        </mxCell>
        <mxCell id="pmfbboUPxJYDlXDQIil8-16" value="&lt;font style=&quot;font-size: 9px;&quot;&gt;(1,N)&lt;/font&gt;" style="text;html=1;align=center;verticalAlign=middle;whiteSpace=wrap;rounded=0;" vertex="1" parent="1">
          <mxGeometry x="-1617" y="-1183.25" width="60" height="30" as="geometry" />
        </mxCell>
        <mxCell id="pmfbboUPxJYDlXDQIil8-17" value="&lt;font style=&quot;font-size: 9px;&quot;&gt;(1,1)&lt;/font&gt;" style="text;html=1;align=center;verticalAlign=middle;whiteSpace=wrap;rounded=0;" vertex="1" parent="1">
          <mxGeometry x="-1378" y="-1148" width="60" height="30" as="geometry" />
        </mxCell>
        <mxCell id="pmfbboUPxJYDlXDQIil8-18" value="&lt;font style=&quot;font-size: 9px;&quot;&gt;(0,N)&lt;/font&gt;" style="text;html=1;align=center;verticalAlign=middle;whiteSpace=wrap;rounded=0;" vertex="1" parent="1">
          <mxGeometry x="-1375" y="-976" width="60" height="30" as="geometry" />
        </mxCell>
        <mxCell id="pmfbboUPxJYDlXDQIil8-20" value="&lt;font style=&quot;font-size: 9px;&quot;&gt;(0,1)&lt;/font&gt;" style="text;html=1;align=center;verticalAlign=middle;whiteSpace=wrap;rounded=0;" vertex="1" parent="1">
          <mxGeometry x="-1609.5" y="-1021" width="60" height="30" as="geometry" />
        </mxCell>
        <mxCell id="pmfbboUPxJYDlXDQIil8-21" value="&lt;font style=&quot;font-size: 9px;&quot;&gt;(0,1)&lt;/font&gt;" style="text;html=1;align=center;verticalAlign=middle;whiteSpace=wrap;rounded=0;" vertex="1" parent="1">
          <mxGeometry x="-1748.5" y="-1023" width="60" height="30" as="geometry" />
        </mxCell>
        <mxCell id="pmfbboUPxJYDlXDQIil8-25" value="&lt;font style=&quot;font-size: 9px;&quot;&gt;(1,N)&lt;/font&gt;" style="text;html=1;align=center;verticalAlign=middle;whiteSpace=wrap;rounded=0;" vertex="1" parent="1">
          <mxGeometry x="-1742.5" y="-1148" width="60" height="30" as="geometry" />
        </mxCell>
        <mxCell id="pmfbboUPxJYDlXDQIil8-26" value="&lt;font style=&quot;font-size: 9px;&quot;&gt;(1,N)&lt;/font&gt;" style="text;html=1;align=center;verticalAlign=middle;whiteSpace=wrap;rounded=0;" vertex="1" parent="1">
          <mxGeometry x="-1744" y="-1174" width="60" height="30" as="geometry" />
        </mxCell>
        <mxCell id="pmfbboUPxJYDlXDQIil8-27" value="&lt;font style=&quot;font-size: 9px;&quot;&gt;(1,1)&lt;/font&gt;" style="text;html=1;align=center;verticalAlign=middle;whiteSpace=wrap;rounded=0;" vertex="1" parent="1">
          <mxGeometry x="-2030.5" y="-1654" width="60" height="30" as="geometry" />
        </mxCell>
        <mxCell id="pmfbboUPxJYDlXDQIil8-37" style="rounded=0;orthogonalLoop=1;jettySize=auto;html=1;exitX=0.5;exitY=1;exitDx=0;exitDy=0;endArrow=none;endFill=0;" edge="1" parent="1" source="pmfbboUPxJYDlXDQIil8-31" target="pmfbboUPxJYDlXDQIil8-35">
          <mxGeometry relative="1" as="geometry">
            <mxPoint x="-1890.4999999999995" y="-911.9999999999995" as="targetPoint" />
          </mxGeometry>
        </mxCell>
        <mxCell id="pmfbboUPxJYDlXDQIil8-31" value="Pasa" style="rhombus;whiteSpace=wrap;html=1;" vertex="1" parent="1">
          <mxGeometry x="-1931.5" y="-1000" width="80" height="54" as="geometry" />
        </mxCell>
        <mxCell id="pmfbboUPxJYDlXDQIil8-33" value="&lt;font style=&quot;font-size: 9px;&quot;&gt;(1,1)&lt;/font&gt;" style="text;html=1;align=center;verticalAlign=middle;whiteSpace=wrap;rounded=0;" vertex="1" parent="1">
          <mxGeometry x="-1970.5" y="-1050" width="60" height="30" as="geometry" />
        </mxCell>
        <mxCell id="pmfbboUPxJYDlXDQIil8-34" value="" style="curved=1;endArrow=classic;html=1;rounded=0;endFill=1;" edge="1" parent="1">
          <mxGeometry width="50" height="50" relative="1" as="geometry">
            <mxPoint x="-2008" y="-987" as="sourcePoint" />
            <mxPoint x="-1935" y="-1106" as="targetPoint" />
            <Array as="points">
              <mxPoint x="-1947.5" y="-997" />
            </Array>
          </mxGeometry>
        </mxCell>
        <mxCell id="pmfbboUPxJYDlXDQIil8-35" value="TEST" style="whiteSpace=wrap;html=1;align=center;" vertex="1" parent="1">
          <mxGeometry x="-1941" y="-905" width="100" height="40" as="geometry" />
        </mxCell>
        <mxCell id="pmfbboUPxJYDlXDQIil8-39" value="&lt;font style=&quot;font-size: 9px;&quot;&gt;(0,1)&lt;/font&gt;" style="text;html=1;align=center;verticalAlign=middle;whiteSpace=wrap;rounded=0;" vertex="1" parent="1">
          <mxGeometry x="-1909" y="-935" width="60" height="30" as="geometry" />
        </mxCell>
        <mxCell id="pmfbboUPxJYDlXDQIil8-44" style="rounded=0;orthogonalLoop=1;jettySize=auto;html=1;exitX=0.5;exitY=0;exitDx=0;exitDy=0;entryX=0.5;entryY=1;entryDx=0;entryDy=0;endArrow=none;endFill=0;" edge="1" parent="1" source="pmfbboUPxJYDlXDQIil8-41" target="pmfbboUPxJYDlXDQIil8-35">
          <mxGeometry relative="1" as="geometry">
            <mxPoint x="-1890.4999999999995" y="-857" as="targetPoint" />
          </mxGeometry>
        </mxCell>
        <mxCell id="pmfbboUPxJYDlXDQIil8-41" value="nota" style="ellipse;whiteSpace=wrap;html=1;aspect=fixed;labelPosition=center;verticalLabelPosition=bottom;align=center;verticalAlign=top;" vertex="1" parent="1">
          <mxGeometry x="-1870" y="-820" width="50" height="50" as="geometry" />
        </mxCell>
        <mxCell id="pmfbboUPxJYDlXDQIil8-46" value="&lt;font style=&quot;font-size: 9px;&quot;&gt;(1,1)&lt;/font&gt;" style="text;html=1;align=center;verticalAlign=middle;whiteSpace=wrap;rounded=0;" vertex="1" parent="1">
          <mxGeometry x="-1669" y="-1148" width="60" height="30" as="geometry" />
        </mxCell>
        <mxCell id="aBXQHeNN46Pz50zyPu9H-1" value="&lt;font style=&quot;font-size: 9px;&quot;&gt;(1,1)&lt;/font&gt;" style="text;html=1;align=center;verticalAlign=middle;whiteSpace=wrap;rounded=0;" vertex="1" parent="1">
          <mxGeometry x="-2005.5" y="-1054" width="60" height="30" as="geometry" />
        </mxCell>
        <mxCell id="aBXQHeNN46Pz50zyPu9H-2" value="&lt;font style=&quot;font-size: 9px;&quot;&gt;(1,N)&lt;/font&gt;" style="text;html=1;align=center;verticalAlign=middle;whiteSpace=wrap;rounded=0;" vertex="1" parent="1">
          <mxGeometry x="-2005.5" y="-1080" width="60" height="30" as="geometry" />
        </mxCell>
        <mxCell id="_W_FJxRL6LF1LhHI--hp-1" value="" style="ellipse;whiteSpace=wrap;html=1;aspect=fixed;" vertex="1" parent="1">
          <mxGeometry x="-1664" y="-1100" width="29" height="29" as="geometry" />
        </mxCell>
        <mxCell id="a9UmB9DZG5irw5ZDXRs9-1" style="rounded=0;orthogonalLoop=1;jettySize=auto;html=1;exitX=0.5;exitY=0;exitDx=0;exitDy=0;endArrow=none;endFill=0;entryX=0.5;entryY=1;entryDx=0;entryDy=0;" edge="1" parent="1" source="a9UmB9DZG5irw5ZDXRs9-2" target="pmfbboUPxJYDlXDQIil8-35">
          <mxGeometry relative="1" as="geometry">
            <mxPoint x="-2036.5" y="-822" as="sourcePoint" />
            <mxPoint x="-1994" y="-865" as="targetPoint" />
          </mxGeometry>
        </mxCell>
        <mxCell id="a9UmB9DZG5irw5ZDXRs9-2" value="id_test" style="ellipse;whiteSpace=wrap;html=1;aspect=fixed;fillColor=#5C068C;labelPosition=center;verticalLabelPosition=bottom;align=center;verticalAlign=top;" vertex="1" parent="1">
          <mxGeometry x="-1960.5" y="-820" width="50" height="50" as="geometry" />
        </mxCell>
        <mxCell id="lVMdMr-sipvR992oy9m3-1" style="rounded=0;orthogonalLoop=1;jettySize=auto;html=1;exitX=0;exitY=0.5;exitDx=0;exitDy=0;endArrow=none;endFill=0;" edge="1" parent="1" source="lVMdMr-sipvR992oy9m3-2" target="g8suzwGlBMZNTWlI-Ku3-68">
          <mxGeometry relative="1" as="geometry">
            <mxPoint x="-1094" y="-1023" as="targetPoint" />
          </mxGeometry>
        </mxCell>
        <mxCell id="lVMdMr-sipvR992oy9m3-2" value="localidad" style="ellipse;whiteSpace=wrap;html=1;aspect=fixed;labelPosition=center;verticalLabelPosition=bottom;align=center;verticalAlign=top;" vertex="1" parent="1">
          <mxGeometry x="-1110" y="-1214" width="50" height="50" as="geometry" />
        </mxCell>
        <mxCell id="lVMdMr-sipvR992oy9m3-3" style="rounded=0;orthogonalLoop=1;jettySize=auto;html=1;exitX=0;exitY=0.5;exitDx=0;exitDy=0;endArrow=none;endFill=0;" edge="1" parent="1" source="lVMdMr-sipvR992oy9m3-4" target="g8suzwGlBMZNTWlI-Ku3-68">
          <mxGeometry relative="1" as="geometry">
            <mxPoint x="-1069" y="-1048" as="targetPoint" />
          </mxGeometry>
        </mxCell>
        <mxCell id="lVMdMr-sipvR992oy9m3-4" value="calle" style="ellipse;whiteSpace=wrap;html=1;aspect=fixed;labelPosition=center;verticalLabelPosition=bottom;align=center;verticalAlign=top;" vertex="1" parent="1">
          <mxGeometry x="-1112" y="-1139" width="50" height="50" as="geometry" />
        </mxCell>
        <mxCell id="lVMdMr-sipvR992oy9m3-5" style="rounded=0;orthogonalLoop=1;jettySize=auto;html=1;exitX=0;exitY=0.5;exitDx=0;exitDy=0;endArrow=none;endFill=0;" edge="1" parent="1" source="lVMdMr-sipvR992oy9m3-6" target="g8suzwGlBMZNTWlI-Ku3-68">
          <mxGeometry relative="1" as="geometry">
            <mxPoint x="-1045" y="-1023" as="targetPoint" />
          </mxGeometry>
        </mxCell>
        <mxCell id="lVMdMr-sipvR992oy9m3-6" value="numero" style="ellipse;whiteSpace=wrap;html=1;aspect=fixed;labelPosition=center;verticalLabelPosition=bottom;align=center;verticalAlign=top;" vertex="1" parent="1">
          <mxGeometry x="-1110" y="-1064" width="50" height="50" as="geometry" />
        </mxCell>
        <mxCell id="XZ_IPOt9MAIvKjfWIf2Y-1" value="CONTRATO" style="whiteSpace=wrap;html=1;align=center;" vertex="1" parent="1">
          <mxGeometry x="-1700" y="-1507" width="100" height="40" as="geometry" />
        </mxCell>
        <mxCell id="XZ_IPOt9MAIvKjfWIf2Y-2" style="rounded=0;orthogonalLoop=1;jettySize=auto;html=1;exitX=0;exitY=0.5;exitDx=0;exitDy=0;endArrow=none;endFill=0;" edge="1" parent="1" source="XZ_IPOt9MAIvKjfWIf2Y-3" target="XZ_IPOt9MAIvKjfWIf2Y-1">
          <mxGeometry relative="1" as="geometry">
            <mxPoint x="-1171" y="-1598" as="targetPoint" />
          </mxGeometry>
        </mxCell>
        <mxCell id="XZ_IPOt9MAIvKjfWIf2Y-3" value="id_contrato" style="ellipse;whiteSpace=wrap;html=1;aspect=fixed;fillColor=#5C068C;labelPosition=center;verticalLabelPosition=top;align=center;verticalAlign=bottom;" vertex="1" parent="1">
          <mxGeometry x="-1533" y="-1606" width="50" height="50" as="geometry" />
        </mxCell>
        <mxCell id="XZ_IPOt9MAIvKjfWIf2Y-5" value="&lt;font style=&quot;font-size: 9px;&quot;&gt;(0,N)&lt;/font&gt;" style="text;html=1;align=center;verticalAlign=middle;whiteSpace=wrap;rounded=0;" vertex="1" parent="1">
          <mxGeometry x="-1695" y="-1534" width="60" height="30" as="geometry" />
        </mxCell>
        <mxCell id="XZ_IPOt9MAIvKjfWIf2Y-8" style="rounded=0;orthogonalLoop=1;jettySize=auto;html=1;exitX=0.5;exitY=1;exitDx=0;exitDy=0;edgeStyle=orthogonalEdgeStyle;endArrow=none;endFill=0;" edge="1" parent="1" source="XZ_IPOt9MAIvKjfWIf2Y-10" target="g8suzwGlBMZNTWlI-Ku3-5">
          <mxGeometry relative="1" as="geometry">
            <mxPoint x="-1653" y="-1285" as="targetPoint" />
          </mxGeometry>
        </mxCell>
        <mxCell id="XZ_IPOt9MAIvKjfWIf2Y-9" style="edgeStyle=orthogonalEdgeStyle;rounded=0;orthogonalLoop=1;jettySize=auto;html=1;exitX=0.5;exitY=0;exitDx=0;exitDy=0;entryX=0.5;entryY=1;entryDx=0;entryDy=0;endArrow=none;endFill=0;" edge="1" parent="1" source="XZ_IPOt9MAIvKjfWIf2Y-10" target="XZ_IPOt9MAIvKjfWIf2Y-1">
          <mxGeometry relative="1" as="geometry">
            <mxPoint x="-1653" y="-1424" as="targetPoint" />
          </mxGeometry>
        </mxCell>
        <mxCell id="XZ_IPOt9MAIvKjfWIf2Y-10" value="Participa" style="rhombus;whiteSpace=wrap;html=1;" vertex="1" parent="1">
          <mxGeometry x="-1690.5" y="-1367" width="80" height="37" as="geometry" />
        </mxCell>
        <mxCell id="XZ_IPOt9MAIvKjfWIf2Y-11" value="&lt;font style=&quot;font-size: 9px;&quot;&gt;(0,N)&lt;/font&gt;" style="text;html=1;align=center;verticalAlign=middle;whiteSpace=wrap;rounded=0;" vertex="1" parent="1">
          <mxGeometry x="-1695" y="-1471" width="60" height="30" as="geometry" />
        </mxCell>
        <mxCell id="XZ_IPOt9MAIvKjfWIf2Y-12" value="&lt;font style=&quot;font-size: 9px;&quot;&gt;(1,1)&lt;/font&gt;" style="text;html=1;align=center;verticalAlign=middle;whiteSpace=wrap;rounded=0;" vertex="1" parent="1">
          <mxGeometry x="-1691.5" y="-1202" width="60" height="30" as="geometry" />
        </mxCell>
        <mxCell id="XZ_IPOt9MAIvKjfWIf2Y-15" style="rounded=0;orthogonalLoop=1;jettySize=auto;html=1;exitX=0.5;exitY=0;exitDx=0;exitDy=0;entryX=0.5;entryY=1;entryDx=0;entryDy=0;endArrow=none;endFill=0;" edge="1" parent="1" source="XZ_IPOt9MAIvKjfWIf2Y-16" target="g8suzwGlBMZNTWlI-Ku3-11">
          <mxGeometry relative="1" as="geometry">
            <mxPoint x="-1421" y="-905" as="targetPoint" />
          </mxGeometry>
        </mxCell>
        <mxCell id="XZ_IPOt9MAIvKjfWIf2Y-16" value="fecha" style="ellipse;whiteSpace=wrap;html=1;aspect=fixed;labelPosition=center;verticalLabelPosition=bottom;align=center;verticalAlign=top;" vertex="1" parent="1">
          <mxGeometry x="-1469" y="-873" width="50" height="50" as="geometry" />
        </mxCell>
        <mxCell id="XZ_IPOt9MAIvKjfWIf2Y-20" value="Pertenece" style="rhombus;whiteSpace=wrap;html=1;" vertex="1" parent="1">
          <mxGeometry x="-1545.5" y="-1086" width="80" height="51" as="geometry" />
        </mxCell>
        <mxCell id="XZ_IPOt9MAIvKjfWIf2Y-21" style="edgeStyle=orthogonalEdgeStyle;rounded=0;orthogonalLoop=1;jettySize=auto;html=1;exitX=0.5;exitY=1;exitDx=0;exitDy=0;entryX=0;entryY=0.5;entryDx=0;entryDy=0;endArrow=none;endFill=0;" edge="1" parent="1" source="XZ_IPOt9MAIvKjfWIf2Y-20" target="g8suzwGlBMZNTWlI-Ku3-11">
          <mxGeometry relative="1" as="geometry">
            <mxPoint x="-1348" y="-1014" as="sourcePoint" />
            <mxPoint x="-1348" y="-942" as="targetPoint" />
          </mxGeometry>
        </mxCell>
        <mxCell id="XZ_IPOt9MAIvKjfWIf2Y-23" style="edgeStyle=orthogonalEdgeStyle;rounded=0;orthogonalLoop=1;jettySize=auto;html=1;exitX=1;exitY=0.75;exitDx=0;exitDy=0;entryX=0;entryY=0.5;entryDx=0;entryDy=0;endArrow=none;endFill=0;" edge="1" parent="1" source="g8suzwGlBMZNTWlI-Ku3-5" target="XZ_IPOt9MAIvKjfWIf2Y-20">
          <mxGeometry relative="1" as="geometry">
            <mxPoint x="-1348" y="-1129" as="sourcePoint" />
            <mxPoint x="-1348" y="-1065" as="targetPoint" />
            <Array as="points">
              <mxPoint x="-1557" y="-1149" />
              <mxPoint x="-1557" y="-1060" />
            </Array>
          </mxGeometry>
        </mxCell>
        <mxCell id="XZ_IPOt9MAIvKjfWIf2Y-24" value="&lt;font style=&quot;font-size: 9px;&quot;&gt;(1,1)&lt;/font&gt;" style="text;html=1;align=center;verticalAlign=middle;whiteSpace=wrap;rounded=0;" vertex="1" parent="1">
          <mxGeometry x="-1617" y="-1155" width="60" height="30" as="geometry" />
        </mxCell>
        <mxCell id="XZ_IPOt9MAIvKjfWIf2Y-25" value="&lt;font style=&quot;font-size: 9px;&quot;&gt;(0,N)&lt;/font&gt;" style="text;html=1;align=center;verticalAlign=middle;whiteSpace=wrap;rounded=0;" vertex="1" parent="1">
          <mxGeometry x="-1449" y="-957" width="60" height="30" as="geometry" />
        </mxCell>
      </root>
    </mxGraphModel>
  </diagram>
</mxfile>
